<?xml version="1.0" encoding="UTF-8"?>
<svg xmlns="http://www.w3.org/2000/svg" viewBox="0 0 5048 100" width="5048" height="100" role="img" aria-label="Brand Alchemy symbol strip">
  <rect x="0" y="0" width="5048" height="100" fill="white"/>
  <line x1="0" y1="0.5" x2="5048" y2="0.5" stroke="#e4e4e7" stroke-width="1"/>
  <line x1="0" y1="99.5" x2="5048" y2="99.5" stroke="#e4e4e7" stroke-width="1"/>
  <g transform="translate(16,0)">
    <g transform="translate(0,0)"><svg width="100" height="100" viewBox="0 0 100 100"><circle cx="50" cy="50" r="30" fill="none" stroke="#3f3f46" stroke-width="7" /></svg></g>
    <g transform="translate(112,0)"><svg width="100" height="100" viewBox="0 0 100 100"><polygon points="50,24 80,76 20,76" fill="none" stroke="#3f3f46" stroke-width="7" stroke-linejoin="round" /></svg></g>
    <g transform="translate(224,0)"><svg width="100" height="100" viewBox="0 0 100 100"><path d="M34 20 C34 40, 66 40, 66 20" fill="none" stroke="#3f3f46" stroke-width="7" stroke-linecap="round" /><circle cx="50" cy="49" r="14" fill="none" stroke="#3f3f46" stroke-width="7" /><line x1="50" y1="63" x2="50" y2="83" fill="none" stroke="#3f3f46" stroke-width="7" stroke-linecap="round" /><line x1="36" y1="73" x2="64" y2="73" fill="none" stroke="#3f3f46" stroke-width="7" stroke-linecap="round" /></svg></g>
    <g transform="translate(336,0)"><svg width="100" height="100" viewBox="0 0 100 100"><circle cx="50" cy="50" r="30" fill="none" stroke="#3f3f46" stroke-width="7" /><circle cx="50" cy="50" r="6" fill="#3f3f46" /></svg></g>
    <g transform="translate(448,0)"><svg width="100" height="100" viewBox="0 0 100 100"><polygon points="20,24 80,24 50,76" fill="none" stroke="#3f3f46" stroke-width="7" stroke-linejoin="round" /><line x1="28" y1="50" x2="72" y2="50" fill="none" stroke="#3f3f46" stroke-width="7" stroke-linecap="round" /></svg></g>
    <g transform="translate(560,0)"><svg width="100" height="100" viewBox="0 0 100 100"><circle cx="50" cy="50" r="30" fill="none" stroke="#3f3f46" stroke-width="7" /><line x1="20" y1="50" x2="80" y2="50" fill="none" stroke="#3f3f46" stroke-width="7" stroke-linecap="round" /></svg></g>
    <g transform="translate(672,0)"><svg width="100" height="100" viewBox="0 0 100 100"><polygon points="50,24 80,76 20,76" fill="none" stroke="#3f3f46" stroke-width="7" stroke-linejoin="round" /><line x1="28" y1="50" x2="72" y2="50" fill="none" stroke="#3f3f46" stroke-width="7" stroke-linecap="round" /></svg></g>
    <g transform="translate(784,0)"><svg width="100" height="100" viewBox="0 0 100 100"><circle cx="50" cy="50" r="30" fill="none" stroke="#3f3f46" stroke-width="7" /></svg></g>
    <g transform="translate(896,0)"><svg width="100" height="100" viewBox="0 0 100 100"><polygon points="50,24 80,76 20,76" fill="none" stroke="#3f3f46" stroke-width="7" stroke-linejoin="round" /></svg></g>
    <g transform="translate(1008,0)"><svg width="100" height="100" viewBox="0 0 100 100"><path d="M34 20 C34 40, 66 40, 66 20" fill="none" stroke="#3f3f46" stroke-width="7" stroke-linecap="round" /><circle cx="50" cy="49" r="14" fill="none" stroke="#3f3f46" stroke-width="7" /><line x1="50" y1="63" x2="50" y2="83" fill="none" stroke="#3f3f46" stroke-width="7" stroke-linecap="round" /><line x1="36" y1="73" x2="64" y2="73" fill="none" stroke="#3f3f46" stroke-width="7" stroke-linecap="round" /></svg></g>
    <g transform="translate(1120,0)"><svg width="100" height="100" viewBox="0 0 100 100"><circle cx="50" cy="50" r="30" fill="none" stroke="#3f3f46" stroke-width="7" /><circle cx="50" cy="50" r="6" fill="#3f3f46" /></svg></g>
    <g transform="translate(1232,0)"><svg width="100" height="100" viewBox="0 0 100 100"><circle cx="50" cy="50" r="30" fill="none" stroke="#3f3f46" stroke-width="7" /></svg></g>
    <g transform="translate(1344,0)"><svg width="100" height="100" viewBox="0 0 100 100"><polygon points="50,24 80,76 20,76" fill="none" stroke="#3f3f46" stroke-width="7" stroke-linejoin="round" /></svg></g>
    <g transform="translate(1456,0)"><svg width="100" height="100" viewBox="0 0 100 100"><path d="M34 20 C34 40, 66 40, 66 20" fill="none" stroke="#3f3f46" stroke-width="7" stroke-linecap="round" /><circle cx="50" cy="49" r="14" fill="none" stroke="#3f3f46" stroke-width="7" /><line x1="50" y1="63" x2="50" y2="83" fill="none" stroke="#3f3f46" stroke-width="7" stroke-linecap="round" /><line x1="36" y1="73" x2="64" y2="73" fill="none" stroke="#3f3f46" stroke-width="7" stroke-linecap="round" /></svg></g>
    <g transform="translate(1568,0)"><svg width="100" height="100" viewBox="0 0 100 100"><circle cx="50" cy="50" r="30" fill="none" stroke="#3f3f46" stroke-width="7" /><circle cx="50" cy="50" r="6" fill="#3f3f46" /></svg></g>
    <g transform="translate(1680,0)"><svg width="100" height="100" viewBox="0 0 100 100"><polygon points="20,24 80,24 50,76" fill="none" stroke="#3f3f46" stroke-width="7" stroke-linejoin="round" /><line x1="28" y1="50" x2="72" y2="50" fill="none" stroke="#3f3f46" stroke-width="7" stroke-linecap="round" /></svg></g>
    <g transform="translate(1792,0)"><svg width="100" height="100" viewBox="0 0 100 100"><circle cx="50" cy="50" r="30" fill="none" stroke="#3f3f46" stroke-width="7" /><line x1="20" y1="50" x2="80" y2="50" fill="none" stroke="#3f3f46" stroke-width="7" stroke-linecap="round" /></svg></g>
    <g transform="translate(1904,0)"><svg width="100" height="100" viewBox="0 0 100 100"><polygon points="50,24 80,76 20,76" fill="none" stroke="#3f3f46" stroke-width="7" stroke-linejoin="round" /><line x1="28" y1="50" x2="72" y2="50" fill="none" stroke="#3f3f46" stroke-width="7" stroke-linecap="round" /></svg></g>
    <g transform="translate(2016,0)"><svg width="100" height="100" viewBox="0 0 100 100"><circle cx="50" cy="50" r="30" fill="none" stroke="#3f3f46" stroke-width="7" /></svg></g>
    <g transform="translate(2128,0)"><svg width="100" height="100" viewBox="0 0 100 100"><polygon points="50,24 80,76 20,76" fill="none" stroke="#3f3f46" stroke-width="7" stroke-linejoin="round" /></svg></g>
    <g transform="translate(2240,0)"><svg width="100" height="100" viewBox="0 0 100 100"><path d="M34 20 C34 40, 66 40, 66 20" fill="none" stroke="#3f3f46" stroke-width="7" stroke-linecap="round" /><circle cx="50" cy="49" r="14" fill="none" stroke="#3f3f46" stroke-width="7" /><line x1="50" y1="63" x2="50" y2="83" fill="none" stroke="#3f3f46" stroke-width="7" stroke-linecap="round" /><line x1="36" y1="73" x2="64" y2="73" fill="none" stroke="#3f3f46" stroke-width="7" stroke-linecap="round" /></svg></g>
    <g transform="translate(2352,0)"><svg width="100" height="100" viewBox="0 0 100 100"><circle cx="50" cy="50" r="30" fill="none" stroke="#3f3f46" stroke-width="7" /><circle cx="50" cy="50" r="6" fill="#3f3f46" /></svg></g>
    <text x="2508" y="62" text-anchor="middle" font-size="21" font-family="ui-sans-serif, system-ui, sans-serif" font-weight="600" fill="#3f3f46">β△</text>
    <g transform="translate(2552,0)"><svg width="100" height="100" viewBox="0 0 100 100"><polygon points="20,24 80,24 50,76" fill="none" stroke="#3f3f46" stroke-width="7" stroke-linejoin="round" /><line x1="28" y1="50" x2="72" y2="50" fill="none" stroke="#3f3f46" stroke-width="7" stroke-linecap="round" /></svg></g>
    <g transform="translate(2664,0)"><svg width="100" height="100" viewBox="0 0 100 100"><circle cx="50" cy="50" r="30" fill="none" stroke="#3f3f46" stroke-width="7" /><line x1="20" y1="50" x2="80" y2="50" fill="none" stroke="#3f3f46" stroke-width="7" stroke-linecap="round" /></svg></g>
    <g transform="translate(2776,0)"><svg width="100" height="100" viewBox="0 0 100 100"><polygon points="50,24 80,76 20,76" fill="none" stroke="#3f3f46" stroke-width="7" stroke-linejoin="round" /><line x1="28" y1="50" x2="72" y2="50" fill="none" stroke="#3f3f46" stroke-width="7" stroke-linecap="round" /></svg></g>
    <g transform="translate(2888,0)"><svg width="100" height="100" viewBox="0 0 100 100"><circle cx="50" cy="50" r="30" fill="none" stroke="#3f3f46" stroke-width="7" /></svg></g>
    <g transform="translate(3000,0)"><svg width="100" height="100" viewBox="0 0 100 100"><polygon points="50,24 80,76 20,76" fill="none" stroke="#3f3f46" stroke-width="7" stroke-linejoin="round" /></svg></g>
    <g transform="translate(3112,0)"><svg width="100" height="100" viewBox="0 0 100 100"><path d="M34 20 C34 40, 66 40, 66 20" fill="none" stroke="#3f3f46" stroke-width="7" stroke-linecap="round" /><circle cx="50" cy="49" r="14" fill="none" stroke="#3f3f46" stroke-width="7" /><line x1="50" y1="63" x2="50" y2="83" fill="none" stroke="#3f3f46" stroke-width="7" stroke-linecap="round" /><line x1="36" y1="73" x2="64" y2="73" fill="none" stroke="#3f3f46" stroke-width="7" stroke-linecap="round" /></svg></g>
    <g transform="translate(3224,0)"><svg width="100" height="100" viewBox="0 0 100 100"><circle cx="50" cy="50" r="30" fill="none" stroke="#3f3f46" stroke-width="7" /><circle cx="50" cy="50" r="6" fill="#3f3f46" /></svg></g>
    <g transform="translate(3336,0)"><svg width="100" height="100" viewBox="0 0 100 100"><polygon points="20,24 80,24 50,76" fill="none" stroke="#3f3f46" stroke-width="7" stroke-linejoin="round" /><line x1="28" y1="50" x2="72" y2="50" fill="none" stroke="#3f3f46" stroke-width="7" stroke-linecap="round" /></svg></g>
    <g transform="translate(3448,0)"><svg width="100" height="100" viewBox="0 0 100 100"><circle cx="50" cy="50" r="30" fill="none" stroke="#3f3f46" stroke-width="7" /><line x1="20" y1="50" x2="80" y2="50" fill="none" stroke="#3f3f46" stroke-width="7" stroke-linecap="round" /></svg></g>
    <g transform="translate(3560,0)"><svg width="100" height="100" viewBox="0 0 100 100"><polygon points="50,24 80,76 20,76" fill="none" stroke="#3f3f46" stroke-width="7" stroke-linejoin="round" /><line x1="28" y1="50" x2="72" y2="50" fill="none" stroke="#3f3f46" stroke-width="7" stroke-linecap="round" /></svg></g>
    <g transform="translate(3672,0)"><svg width="100" height="100" viewBox="0 0 100 100"><circle cx="50" cy="50" r="30" fill="none" stroke="#3f3f46" stroke-width="7" /></svg></g>
    <g transform="translate(3784,0)"><svg width="100" height="100" viewBox="0 0 100 100"><polygon points="20,24 80,24 50,76" fill="none" stroke="#3f3f46" stroke-width="7" stroke-linejoin="round" /><line x1="28" y1="50" x2="72" y2="50" fill="none" stroke="#3f3f46" stroke-width="7" stroke-linecap="round" /></svg></g>
    <g transform="translate(3896,0)"><svg width="100" height="100" viewBox="0 0 100 100"><circle cx="50" cy="50" r="30" fill="none" stroke="#3f3f46" stroke-width="7" /><line x1="20" y1="50" x2="80" y2="50" fill="none" stroke="#3f3f46" stroke-width="7" stroke-linecap="round" /></svg></g>
    <g transform="translate(4008,0)"><svg width="100" height="100" viewBox="0 0 100 100"><polygon points="50,24 80,76 20,76" fill="none" stroke="#3f3f46" stroke-width="7" stroke-linejoin="round" /><line x1="28" y1="50" x2="72" y2="50" fill="none" stroke="#3f3f46" stroke-width="7" stroke-linecap="round" /></svg></g>
    <g transform="translate(4120,0)"><svg width="100" height="100" viewBox="0 0 100 100"><circle cx="50" cy="50" r="30" fill="none" stroke="#3f3f46" stroke-width="7" /></svg></g>
    <g transform="translate(4232,0)"><svg width="100" height="100" viewBox="0 0 100 100"><polygon points="50,24 80,76 20,76" fill="none" stroke="#3f3f46" stroke-width="7" stroke-linejoin="round" /></svg></g>
    <g transform="translate(4344,0)"><svg width="100" height="100" viewBox="0 0 100 100"><path d="M34 20 C34 40, 66 40, 66 20" fill="none" stroke="#3f3f46" stroke-width="7" stroke-linecap="round" /><circle cx="50" cy="49" r="14" fill="none" stroke="#3f3f46" stroke-width="7" /><line x1="50" y1="63" x2="50" y2="83" fill="none" stroke="#3f3f46" stroke-width="7" stroke-linecap="round" /><line x1="36" y1="73" x2="64" y2="73" fill="none" stroke="#3f3f46" stroke-width="7" stroke-linecap="round" /></svg></g>
    <g transform="translate(4456,0)"><svg width="100" height="100" viewBox="0 0 100 100"><circle cx="50" cy="50" r="30" fill="none" stroke="#3f3f46" stroke-width="7" /><circle cx="50" cy="50" r="6" fill="#3f3f46" /></svg></g>
    <g transform="translate(4568,0)"><svg width="100" height="100" viewBox="0 0 100 100"><polygon points="20,24 80,24 50,76" fill="none" stroke="#3f3f46" stroke-width="7" stroke-linejoin="round" /><line x1="28" y1="50" x2="72" y2="50" fill="none" stroke="#3f3f46" stroke-width="7" stroke-linecap="round" /></svg></g>
    <g transform="translate(4680,0)"><svg width="100" height="100" viewBox="0 0 100 100"><circle cx="50" cy="50" r="30" fill="none" stroke="#3f3f46" stroke-width="7" /><line x1="20" y1="50" x2="80" y2="50" fill="none" stroke="#3f3f46" stroke-width="7" stroke-linecap="round" /></svg></g>
    <g transform="translate(4792,0)"><svg width="100" height="100" viewBox="0 0 100 100"><polygon points="50,24 80,76 20,76" fill="none" stroke="#3f3f46" stroke-width="7" stroke-linejoin="round" /><line x1="28" y1="50" x2="72" y2="50" fill="none" stroke="#3f3f46" stroke-width="7" stroke-linecap="round" /></svg></g>
    <g transform="translate(4904,0)"><svg width="100" height="100" viewBox="0 0 100 100"><circle cx="50" cy="50" r="30" fill="none" stroke="#3f3f46" stroke-width="7" /></svg></g>
  </g>
</svg>
