<?xml version="1.0" encoding="UTF-8"?>
<svg xmlns="http://www.w3.org/2000/svg" viewBox="0 0 2939.142857142856 100" width="2939.142857142856" height="100" role="img" aria-label="Brand Alchemy symbol strip">
  <rect x="0" y="0" width="2939.142857142856" height="100" fill="white"/>
  <line x1="0" y1="1.7857142857142858" x2="2939.142857142856" y2="1.7857142857142858" stroke="#e4e4e7" stroke-width="3.5714285714285716"/>
  <line x1="0" y1="98.21428571428571" x2="2939.142857142856" y2="98.21428571428571" stroke="#e4e4e7" stroke-width="3.5714285714285716"/>
  <g transform="translate(16,0)">
    <g transform="translate(0,25) scale(0.5)"><polygon points="20,24 80,24 50,76" fill="none" stroke="#3f3f46" stroke-width="7" stroke-linejoin="round" /><line x1="24" y1="50" x2="76" y2="50" fill="none" stroke="#3f3f46" stroke-width="7" stroke-linecap="round" /></g>
    <g transform="translate(64.28571428571429,25) scale(0.5)"><circle cx="50" cy="50" r="30" fill="none" stroke="#3f3f46" stroke-width="7" /><line x1="20" y1="50" x2="80" y2="50" fill="none" stroke="#3f3f46" stroke-width="7" stroke-linecap="round" /></g>
    <g transform="translate(128.57142857142858,25) scale(0.5)"><polygon points="50,24 80,76 20,76" fill="none" stroke="#3f3f46" stroke-width="7" stroke-linejoin="round" /><line x1="24" y1="50" x2="76" y2="50" fill="none" stroke="#3f3f46" stroke-width="7" stroke-linecap="round" /></g>
    <g transform="translate(192.8571428571429,25) scale(0.5)"><circle cx="50" cy="50" r="30" fill="none" stroke="#3f3f46" stroke-width="7" /><circle cx="50" cy="50" r="6" fill="#3f3f46" /></g>
    <g transform="translate(257.14285714285717,25) scale(0.5)"><polygon points="50,24 80,76 20,76" fill="none" stroke="#3f3f46" stroke-width="7" stroke-linejoin="round" /></g>
    <g transform="translate(321.42857142857144,25) scale(0.5)"><path d="M34 20 C34 40, 66 40, 66 20" fill="none" stroke="#3f3f46" stroke-width="7" stroke-linecap="round" /><circle cx="50" cy="49" r="14" fill="none" stroke="#3f3f46" stroke-width="7" /><line x1="50" y1="63" x2="50" y2="83" fill="none" stroke="#3f3f46" stroke-width="7" stroke-linecap="round" /><line x1="36" y1="73" x2="64" y2="73" fill="none" stroke="#3f3f46" stroke-width="7" stroke-linecap="round" /></g>
    <g transform="translate(385.7142857142857,25) scale(0.5)"><polygon points="50,28 74,64 26,64" fill="none" stroke="#3f3f46" stroke-width="7" stroke-linejoin="round" /><line x1="50" y1="64" x2="50" y2="88" fill="none" stroke="#3f3f46" stroke-width="7" stroke-linecap="round" /><line x1="26" y1="77" x2="74" y2="77" fill="none" stroke="#3f3f46" stroke-width="7" stroke-linecap="round" /></g>
    <g transform="translate(450,25) scale(0.5)"><polygon points="20,24 80,24 50,76" fill="none" stroke="#3f3f46" stroke-width="7" stroke-linejoin="round" /><line x1="24" y1="50" x2="76" y2="50" fill="none" stroke="#3f3f46" stroke-width="7" stroke-linecap="round" /></g>
    <g transform="translate(514.2857142857143,25) scale(0.5)"><circle cx="50" cy="50" r="30" fill="none" stroke="#3f3f46" stroke-width="7" /><line x1="20" y1="50" x2="80" y2="50" fill="none" stroke="#3f3f46" stroke-width="7" stroke-linecap="round" /></g>
    <g transform="translate(578.5714285714287,25) scale(0.5)"><polygon points="50,24 80,76 20,76" fill="none" stroke="#3f3f46" stroke-width="7" stroke-linejoin="round" /><line x1="24" y1="50" x2="76" y2="50" fill="none" stroke="#3f3f46" stroke-width="7" stroke-linecap="round" /></g>
    <g transform="translate(642.857142857143,25) scale(0.5)"><circle cx="50" cy="50" r="30" fill="none" stroke="#3f3f46" stroke-width="7" /><circle cx="50" cy="50" r="6" fill="#3f3f46" /></g>
    <g transform="translate(707.1428571428573,25) scale(0.5)"><polygon points="50,24 80,76 20,76" fill="none" stroke="#3f3f46" stroke-width="7" stroke-linejoin="round" /></g>
    <g transform="translate(771.4285714285717,25) scale(0.5)"><path d="M34 20 C34 40, 66 40, 66 20" fill="none" stroke="#3f3f46" stroke-width="7" stroke-linecap="round" /><circle cx="50" cy="49" r="14" fill="none" stroke="#3f3f46" stroke-width="7" /><line x1="50" y1="63" x2="50" y2="83" fill="none" stroke="#3f3f46" stroke-width="7" stroke-linecap="round" /><line x1="36" y1="73" x2="64" y2="73" fill="none" stroke="#3f3f46" stroke-width="7" stroke-linecap="round" /></g>
    <g transform="translate(835.714285714286,25) scale(0.5)"><polygon points="50,28 74,64 26,64" fill="none" stroke="#3f3f46" stroke-width="7" stroke-linejoin="round" /><line x1="50" y1="64" x2="50" y2="88" fill="none" stroke="#3f3f46" stroke-width="7" stroke-linecap="round" /><line x1="26" y1="77" x2="74" y2="77" fill="none" stroke="#3f3f46" stroke-width="7" stroke-linecap="round" /></g>
    <g transform="translate(900.0000000000003,25) scale(0.5)"><polygon points="20,24 80,24 50,76" fill="none" stroke="#3f3f46" stroke-width="7" stroke-linejoin="round" /><line x1="24" y1="50" x2="76" y2="50" fill="none" stroke="#3f3f46" stroke-width="7" stroke-linecap="round" /></g>
    <g transform="translate(964.2857142857147,25) scale(0.5)"><circle cx="50" cy="50" r="30" fill="none" stroke="#3f3f46" stroke-width="7" /><line x1="20" y1="50" x2="80" y2="50" fill="none" stroke="#3f3f46" stroke-width="7" stroke-linecap="round" /></g>
    <g transform="translate(1028.571428571429,25) scale(0.5)"><polygon points="50,24 80,76 20,76" fill="none" stroke="#3f3f46" stroke-width="7" stroke-linejoin="round" /><line x1="24" y1="50" x2="76" y2="50" fill="none" stroke="#3f3f46" stroke-width="7" stroke-linecap="round" /></g>
    <g transform="translate(1092.8571428571431,25) scale(0.5)"><circle cx="50" cy="50" r="30" fill="none" stroke="#3f3f46" stroke-width="7" /><circle cx="50" cy="50" r="6" fill="#3f3f46" /></g>
    <g transform="translate(1157.1428571428573,25) scale(0.5)"><polygon points="50,24 80,76 20,76" fill="none" stroke="#3f3f46" stroke-width="7" stroke-linejoin="round" /></g>
    <g transform="translate(1221.4285714285716,25) scale(0.5)"><path d="M34 20 C34 40, 66 40, 66 20" fill="none" stroke="#3f3f46" stroke-width="7" stroke-linecap="round" /><circle cx="50" cy="49" r="14" fill="none" stroke="#3f3f46" stroke-width="7" /><line x1="50" y1="63" x2="50" y2="83" fill="none" stroke="#3f3f46" stroke-width="7" stroke-linecap="round" /><line x1="36" y1="73" x2="64" y2="73" fill="none" stroke="#3f3f46" stroke-width="7" stroke-linecap="round" /></g>
    <g transform="translate(1285.7142857142858,25) scale(0.5)"><polygon points="50,28 74,64 26,64" fill="none" stroke="#3f3f46" stroke-width="7" stroke-linejoin="round" /><line x1="50" y1="64" x2="50" y2="88" fill="none" stroke="#3f3f46" stroke-width="7" stroke-linecap="round" /><line x1="26" y1="77" x2="74" y2="77" fill="none" stroke="#3f3f46" stroke-width="7" stroke-linecap="round" /></g>
    <g transform="translate(1350,25) scale(0.5)"><polygon points="20,24 80,24 50,76" fill="none" stroke="#3f3f46" stroke-width="7" stroke-linejoin="round" /><line x1="24" y1="50" x2="76" y2="50" fill="none" stroke="#3f3f46" stroke-width="7" stroke-linecap="round" /></g>
    <text x="1436.5714285714287" y="50" dominant-baseline="middle" text-anchor="end" font-size="37.5" font-family="ui-sans-serif, system-ui, sans-serif" font-weight="600" letter-spacing="-0.02em" fill="#3f3f46">β</text>
    <g transform="translate(1442.5714285714287,25) scale(0.5)"><polygon points="50,24 80,76 20,76" fill="none" stroke="#3f3f46" stroke-width="7" stroke-linejoin="round" /></g>
    <g transform="translate(1507.142857142857,25) scale(0.5)"><circle cx="50" cy="50" r="30" fill="none" stroke="#3f3f46" stroke-width="7" /><line x1="20" y1="50" x2="80" y2="50" fill="none" stroke="#3f3f46" stroke-width="7" stroke-linecap="round" /></g>
    <g transform="translate(1571.4285714285713,25) scale(0.5)"><polygon points="50,24 80,76 20,76" fill="none" stroke="#3f3f46" stroke-width="7" stroke-linejoin="round" /><line x1="24" y1="50" x2="76" y2="50" fill="none" stroke="#3f3f46" stroke-width="7" stroke-linecap="round" /></g>
    <g transform="translate(1635.7142857142856,25) scale(0.5)"><circle cx="50" cy="50" r="30" fill="none" stroke="#3f3f46" stroke-width="7" /><circle cx="50" cy="50" r="6" fill="#3f3f46" /></g>
    <g transform="translate(1699.9999999999998,25) scale(0.5)"><polygon points="50,24 80,76 20,76" fill="none" stroke="#3f3f46" stroke-width="7" stroke-linejoin="round" /></g>
    <g transform="translate(1764.285714285714,25) scale(0.5)"><path d="M34 20 C34 40, 66 40, 66 20" fill="none" stroke="#3f3f46" stroke-width="7" stroke-linecap="round" /><circle cx="50" cy="49" r="14" fill="none" stroke="#3f3f46" stroke-width="7" /><line x1="50" y1="63" x2="50" y2="83" fill="none" stroke="#3f3f46" stroke-width="7" stroke-linecap="round" /><line x1="36" y1="73" x2="64" y2="73" fill="none" stroke="#3f3f46" stroke-width="7" stroke-linecap="round" /></g>
    <g transform="translate(1828.5714285714282,25) scale(0.5)"><polygon points="50,28 74,64 26,64" fill="none" stroke="#3f3f46" stroke-width="7" stroke-linejoin="round" /><line x1="50" y1="64" x2="50" y2="88" fill="none" stroke="#3f3f46" stroke-width="7" stroke-linecap="round" /><line x1="26" y1="77" x2="74" y2="77" fill="none" stroke="#3f3f46" stroke-width="7" stroke-linecap="round" /></g>
    <g transform="translate(1892.8571428571424,25) scale(0.5)"><polygon points="20,24 80,24 50,76" fill="none" stroke="#3f3f46" stroke-width="7" stroke-linejoin="round" /><line x1="24" y1="50" x2="76" y2="50" fill="none" stroke="#3f3f46" stroke-width="7" stroke-linecap="round" /></g>
    <g transform="translate(1957.1428571428567,25) scale(0.5)"><circle cx="50" cy="50" r="30" fill="none" stroke="#3f3f46" stroke-width="7" /><line x1="20" y1="50" x2="80" y2="50" fill="none" stroke="#3f3f46" stroke-width="7" stroke-linecap="round" /></g>
    <g transform="translate(2021.4285714285709,25) scale(0.5)"><polygon points="50,24 80,76 20,76" fill="none" stroke="#3f3f46" stroke-width="7" stroke-linejoin="round" /><line x1="24" y1="50" x2="76" y2="50" fill="none" stroke="#3f3f46" stroke-width="7" stroke-linecap="round" /></g>
    <g transform="translate(2085.7142857142853,25) scale(0.5)"><circle cx="50" cy="50" r="30" fill="none" stroke="#3f3f46" stroke-width="7" /><circle cx="50" cy="50" r="6" fill="#3f3f46" /></g>
    <g transform="translate(2149.9999999999995,25) scale(0.5)"><polygon points="50,24 80,76 20,76" fill="none" stroke="#3f3f46" stroke-width="7" stroke-linejoin="round" /></g>
    <g transform="translate(2214.2857142857138,25) scale(0.5)"><path d="M34 20 C34 40, 66 40, 66 20" fill="none" stroke="#3f3f46" stroke-width="7" stroke-linecap="round" /><circle cx="50" cy="49" r="14" fill="none" stroke="#3f3f46" stroke-width="7" /><line x1="50" y1="63" x2="50" y2="83" fill="none" stroke="#3f3f46" stroke-width="7" stroke-linecap="round" /><line x1="36" y1="73" x2="64" y2="73" fill="none" stroke="#3f3f46" stroke-width="7" stroke-linecap="round" /></g>
    <g transform="translate(2278.571428571428,25) scale(0.5)"><polygon points="50,28 74,64 26,64" fill="none" stroke="#3f3f46" stroke-width="7" stroke-linejoin="round" /><line x1="50" y1="64" x2="50" y2="88" fill="none" stroke="#3f3f46" stroke-width="7" stroke-linecap="round" /><line x1="26" y1="77" x2="74" y2="77" fill="none" stroke="#3f3f46" stroke-width="7" stroke-linecap="round" /></g>
    <g transform="translate(2342.857142857142,25) scale(0.5)"><polygon points="20,24 80,24 50,76" fill="none" stroke="#3f3f46" stroke-width="7" stroke-linejoin="round" /><line x1="24" y1="50" x2="76" y2="50" fill="none" stroke="#3f3f46" stroke-width="7" stroke-linecap="round" /></g>
    <g transform="translate(2407.1428571428564,25) scale(0.5)"><circle cx="50" cy="50" r="30" fill="none" stroke="#3f3f46" stroke-width="7" /><line x1="20" y1="50" x2="80" y2="50" fill="none" stroke="#3f3f46" stroke-width="7" stroke-linecap="round" /></g>
    <g transform="translate(2471.4285714285706,25) scale(0.5)"><polygon points="50,24 80,76 20,76" fill="none" stroke="#3f3f46" stroke-width="7" stroke-linejoin="round" /><line x1="24" y1="50" x2="76" y2="50" fill="none" stroke="#3f3f46" stroke-width="7" stroke-linecap="round" /></g>
    <g transform="translate(2535.714285714285,25) scale(0.5)"><circle cx="50" cy="50" r="30" fill="none" stroke="#3f3f46" stroke-width="7" /><circle cx="50" cy="50" r="6" fill="#3f3f46" /></g>
    <g transform="translate(2599.999999999999,25) scale(0.5)"><polygon points="50,24 80,76 20,76" fill="none" stroke="#3f3f46" stroke-width="7" stroke-linejoin="round" /></g>
    <g transform="translate(2664.2857142857133,25) scale(0.5)"><path d="M34 20 C34 40, 66 40, 66 20" fill="none" stroke="#3f3f46" stroke-width="7" stroke-linecap="round" /><circle cx="50" cy="49" r="14" fill="none" stroke="#3f3f46" stroke-width="7" /><line x1="50" y1="63" x2="50" y2="83" fill="none" stroke="#3f3f46" stroke-width="7" stroke-linecap="round" /><line x1="36" y1="73" x2="64" y2="73" fill="none" stroke="#3f3f46" stroke-width="7" stroke-linecap="round" /></g>
    <g transform="translate(2728.5714285714275,25) scale(0.5)"><polygon points="50,28 74,64 26,64" fill="none" stroke="#3f3f46" stroke-width="7" stroke-linejoin="round" /><line x1="50" y1="64" x2="50" y2="88" fill="none" stroke="#3f3f46" stroke-width="7" stroke-linecap="round" /><line x1="26" y1="77" x2="74" y2="77" fill="none" stroke="#3f3f46" stroke-width="7" stroke-linecap="round" /></g>
    <g transform="translate(2792.8571428571418,25) scale(0.5)"><polygon points="20,24 80,24 50,76" fill="none" stroke="#3f3f46" stroke-width="7" stroke-linejoin="round" /><line x1="24" y1="50" x2="76" y2="50" fill="none" stroke="#3f3f46" stroke-width="7" stroke-linecap="round" /></g>
    <g transform="translate(2857.142857142856,25) scale(0.5)"><circle cx="50" cy="50" r="30" fill="none" stroke="#3f3f46" stroke-width="7" /><line x1="20" y1="50" x2="80" y2="50" fill="none" stroke="#3f3f46" stroke-width="7" stroke-linecap="round" /></g>
  </g>
</svg>
